<?xml version="1.0" encoding="UTF-8" standalone="no" ?>
<!DOCTYPE svg PUBLIC "-//W3C//DTD SVG 1.1//EN" "http://www.w3.org/Graphics/SVG/1.1/DTD/svg11.dtd">
<svg xmlns="http://www.w3.org/2000/svg" xmlns:xlink="http://www.w3.org/1999/xlink" version="1.1" width="500" height="500" viewBox="0 0 500 500" xml:space="preserve">
<desc>Created with Fabric.js 5.3.0</desc>
<defs>
</defs>
<g transform="matrix(1 0 0 1 282.5131810193 139.7188049209)" id="96XP9lRDmv9EWvxE82QgB"  >
<path style="stroke: rgb(248,124,56); stroke-width: 0; stroke-dasharray: none; stroke-linecap: butt; stroke-dashoffset: 0; stroke-linejoin: miter; stroke-miterlimit: 4; fill: rgb(242,232,207); fill-rule: nonzero; opacity: 1;"  transform=" translate(-50.96661, -50.96661)" d="M 50.96661 0 C 79.10018 0 101.93322 22.83304 101.93322 50.96661 C 101.93322 79.10018 79.10018000000001 101.93322 50.96661 101.93322 C 22.833040000000004 101.93322 0 79.10018000000001 0 50.96661 C 0 22.833040000000004 22.83304 0 50.96661 0 z" stroke-linecap="round" />
</g>
<g transform="matrix(1 0 0 0.2627737419 282.5131810193 190.6854179645)" id="z5Qa9cnXQEMNVXTY4K6sV"  >
<path style="stroke: rgb(24,162,2); stroke-width: 0; stroke-dasharray: none; stroke-linecap: butt; stroke-dashoffset: 0; stroke-linejoin: miter; stroke-miterlimit: 4; fill: rgb(242,232,207); fill-rule: nonzero; opacity: 1;"  transform=" translate(0, 0)" d="M 0 -60.19333 C 33.22672 -60.19333 60.19333 -33.22672 60.19333 0 C 60.19333 33.22672 33.22672 60.19333 0 60.19333 C -33.22672 60.19333 -60.19333 33.22672 -60.19333 0 C -60.19333 -33.22672 -33.22672 -60.19333 0 -60.19333 z" stroke-linecap="round" />
</g>
<g transform="matrix(1.0985400308 0 0 0.2627737419 282.5131810193 214.7451719188)" id="qKPAmai6eeRle0zq484RY"  >
<path style="stroke: rgb(24,162,2); stroke-width: 0; stroke-dasharray: none; stroke-linecap: butt; stroke-dashoffset: 0; stroke-linejoin: miter; stroke-miterlimit: 4; fill: rgb(242,232,207); fill-rule: nonzero; opacity: 1;"  transform=" translate(0, 0)" d="M 0 -60.19333 C 33.22672 -60.19333 60.19333 -33.22672 60.19333 0 C 60.19333 33.22672 33.22672 60.19333 0 60.19333 C -33.22672 60.19333 -60.19333 33.22672 -60.19333 0 C -60.19333 -33.22672 -33.22672 -60.19333 0 -60.19333 z" stroke-linecap="round" />
</g>
<g transform="matrix(1.4225873074 0 0 2.1834114431 282.5131810193 214.7451719188)" id="mMwPO8d6SmihHhHbGWn5Y"  >
<path style="stroke: none; stroke-width: 1; stroke-dasharray: none; stroke-linecap: butt; stroke-dashoffset: 0; stroke-linejoin: miter; stroke-miterlimit: 4; fill: rgb(242,232,207); fill-rule: nonzero; opacity: 1;"  transform=" translate(-40, -40)" d="M 60 40 L 80 80 L 40 80 L 0 80 L 20 40 L 40 0 L 60 40 z" stroke-linecap="round" />
</g>
<g transform="matrix(1.2335765492 0 0 0.2627737419 282.5131810193 303.1733353634)" id="hQPrNByBUW20O_0p8yLbq"  >
<path style="stroke: rgb(24,162,2); stroke-width: 0; stroke-dasharray: none; stroke-linecap: butt; stroke-dashoffset: 0; stroke-linejoin: miter; stroke-miterlimit: 4; fill: rgb(242,232,207); fill-rule: nonzero; opacity: 1;"  transform=" translate(0, 0)" d="M 0 -60.19333 C 33.22672 -60.19333 60.19333 -33.22672 60.19333 0 C 60.19333 33.22672 33.22672 60.19333 0 60.19333 C -33.22672 60.19333 -60.19333 33.22672 -60.19333 0 C -60.19333 -33.22672 -33.22672 -60.19333 0 -60.19333 z" stroke-linecap="round" />
</g>
<g transform="matrix(1.3357662849 0 0 0.2188959193 283.8312806909 316.3494098379)" id="495KEJKYXE4XEMDFtVRl7"  >
<path style="stroke: rgb(24,162,2); stroke-width: 0; stroke-dasharray: none; stroke-linecap: butt; stroke-dashoffset: 0; stroke-linejoin: miter; stroke-miterlimit: 4; fill: rgb(242,232,207); fill-rule: nonzero; opacity: 1;"  transform=" translate(0, 0)" d="M 0 -60.19333 C 33.22672 -60.19333 60.19333 -33.22672 60.19333 0 C 60.19333 33.22672 33.22672 60.19333 0 60.19333 C -33.22672 60.19333 -60.19333 33.22672 -60.19333 0 C -60.19333 -33.22672 -33.22672 -60.19333 0 -60.19333 z" stroke-linecap="round" />
</g>
<g transform="matrix(7.4413305081 0 0 0.2857947794 283.8312858162 319.4374469909)" id="wWOzh-KAks7vZK5dsGiXO"  >
<path style="stroke: rgb(164,131,22); stroke-width: 0; stroke-dasharray: none; stroke-linecap: butt; stroke-dashoffset: 0; stroke-linejoin: miter; stroke-miterlimit: 4; fill: rgb(242,232,207); fill-rule: nonzero; opacity: 1;"  transform=" translate(0.000005, 0.000005)" d="M -10.80509 -10.80509 L 10.80508 -10.80509 L 10.80508 10.80508 L -10.80509 10.80508 z" stroke-linecap="round" />
</g>
<g transform="matrix(1.3357662849 0 0 0.2188959193 283.8312858162 322.7015576101)" id="pPuccTbeqiFGKaATCUARD"  >
<path style="stroke: rgb(24,162,2); stroke-width: 0; stroke-dasharray: none; stroke-linecap: butt; stroke-dashoffset: 0; stroke-linejoin: miter; stroke-miterlimit: 4; fill: rgb(242,232,207); fill-rule: nonzero; opacity: 1;"  transform=" translate(0, 0)" d="M 0 -60.19333 C 33.22672 -60.19333 60.19333 -33.22672 60.19333 0 C 60.19333 33.22672 33.22672 60.19333 0 60.19333 C -33.22672 60.19333 -60.19333 33.22672 -60.19333 0 C -60.19333 -33.22672 -33.22672 -60.19333 0 -60.19333 z" stroke-linecap="round" />
</g>
<g transform="matrix(0.0867508186 0.0315747158 -0.7952510736 2.1849343676 274.7760514078 217.5492303594)" id="0KPVxkbjMFrLWtXP9-4aO"  >
<path style="stroke: rgb(59,161,147); stroke-width: 0; stroke-dasharray: none; stroke-linecap: butt; stroke-dashoffset: 0; stroke-linejoin: miter; stroke-miterlimit: 4; fill: rgb(8,14,29); fill-rule: nonzero; opacity: 1;"  transform=" translate(0, 0)" d="M -54.32489 -54.32489 L 54.32489 -54.32489 L 54.32489 54.32489 L -54.32489 54.32489 z" stroke-linecap="round" />
</g>
</svg>